<svg width="104" height="40" viewBox="0 0 104 40" fill="none" xmlns="http://www.w3.org/2000/svg">
<g id="Arrow 05">
<path id="Line-1" fill-rule="evenodd" clip-rule="evenodd" d="M87.6725 13.0968C79.8386 12.4214 77.5957 12.2586 73.2332 12.0489C68.7121 11.8316 65.4706 11.7388 60.3188 11.6793C59.1245 11.6655 57.8469 11.6384 56.3502 11.5952C50.8524 11.4363 49.78 11.432 47.9851 11.5616C47.0958 11.6259 46.3292 11.6557 45.9025 11.6427C45.523 11.6311 45.4532 11.6402 45.4472 11.7019C45.4419 11.7565 46.0402 11.8627 46.3728 11.8662C46.492 11.8675 46.8146 11.8737 47.0898 11.88C47.3649 11.8862 47.9714 11.8902 48.4375 11.8888C49.5351 11.8854 50.0604 11.9018 51.9369 11.9974C55.0915 12.1583 57.4774 12.2503 60.4119 12.3243C61.4933 12.3516 62.9292 12.3878 63.6027 12.4047C68.711 12.5334 74.9391 12.8103 78.7354 13.0776C83.3422 13.4019 97.6178 14.6775 97.3683 14.7426C97.2694 14.7684 95.6118 14.8708 94.62 14.9124C93.7089 14.9507 92.1897 14.986 90.3224 15.0122C89.4368 15.0247 88.2213 15.0429 87.6212 15.0528C85.367 15.0898 84.625 15.0971 83.3465 15.095C77.4566 15.0856 73.5547 15.1967 68.1065 15.5287C64.8682 15.7261 62.1977 16.0542 59.198 16.6232C57.4924 16.9468 57.3225 17.0171 57.4555 17.3448C57.5421 17.5579 58.3764 17.6653 60.0785 17.6824C63.1891 17.7137 66.1079 17.787 68.9309 17.9047C70.7016 17.9786 70.9365 17.985 72.742 18.0082C73.4163 18.0169 74.5805 18.0469 75.329 18.075L76.69 18.1259L74.8945 17.92C72.1737 17.6079 69.2499 17.3274 68.282 17.2857C65.0778 17.1476 63.3313 17.111 60.4716 17.1222C59.7899 17.1248 59.2156 17.1195 59.1953 17.1103C58.9992 17.0215 63.6398 16.4173 65.8425 16.2447C70.8146 15.8553 75.9112 15.6991 83.7204 15.6968C84.4336 15.6966 85.8665 15.6838 86.9045 15.6684C87.9425 15.653 89.5788 15.6288 90.5406 15.6147C94.2426 15.5605 95.3486 15.5139 98.926 15.2611C101.217 15.0991 101.229 15.097 101.315 14.8528C101.409 14.5843 101.241 14.4419 100.727 14.3561C100.239 14.2745 91.036 13.3868 87.6725 13.0968ZM76.8387 18.1123C76.8805 18.1248 76.9422 18.1305 76.9758 18.1249C77.0094 18.1193 76.9752 18.1091 76.8998 18.1021C76.8244 18.0952 76.7969 18.0998 76.8387 18.1123Z" fill="#DF6951" stroke="#DF6951" stroke-width="0.7"/>
</g>
</svg>
